<?xml version="1.0" encoding="UTF-8" standalone="no"?>
<!-- Created with Inkscape (http://www.inkscape.org/) -->

<svg
   xmlns:dc="http://purl.org/dc/elements/1.1/"
   xmlns:cc="http://creativecommons.org/ns#"
   xmlns:rdf="http://www.w3.org/1999/02/22-rdf-syntax-ns#"
   xmlns:svg="http://www.w3.org/2000/svg"
   xmlns="http://www.w3.org/2000/svg"
   xmlns:sodipodi="http://sodipodi.sourceforge.net/DTD/sodipodi-0.dtd"
   xmlns:inkscape="http://www.inkscape.org/namespaces/inkscape"
   version="1.1"
   id="svg3700"
   width="240"
   height="65"
   viewBox="0 0 240 65"
   sodipodi:docname="headtx.svg"
   inkscape:version="0.92.1 r15371">
  <metadata
     id="metadata3706">
    <rdf:RDF>
      <cc:Work
         rdf:about="">
        <dc:format>image/svg+xml</dc:format>
        <dc:type
           rdf:resource="http://purl.org/dc/dcmitype/StillImage" />
        <dc:title></dc:title>
      </cc:Work>
    </rdf:RDF>
  </metadata>
  <defs
     id="defs3704" />
  <sodipodi:namedview
     pagecolor="#ffffff"
     bordercolor="#666666"
     borderopacity="1"
     objecttolerance="10"
     gridtolerance="10"
     guidetolerance="10"
     inkscape:pageopacity="0"
     inkscape:pageshadow="2"
     inkscape:window-width="1366"
     inkscape:window-height="715"
     id="namedview3702"
     showgrid="false"
     inkscape:zoom="5.0458333"
     inkscape:cx="120"
     inkscape:cy="32.5"
     inkscape:window-x="-8"
     inkscape:window-y="-8"
     inkscape:window-maximized="1"
     inkscape:current-layer="svg3700" />
  <path
     inkscape:connector-curvature="0"
     id="path3726"
     d="m 95.920724,25.365401 v -7.727086 h 16.449216 16.44922 v 7.727086 7.727086 H 112.36994 95.920724 Z"
     style="fill:#3d504e;stroke-width:0.18052951" />
  <path
     inkscape:connector-curvature="0"
     id="path3724"
     d="m 95.924735,25.365401 -0.0029,-7.727086 h 16.448645 16.44865 v 7.727086 7.727086 l -12.91949,-0.0036 c -7.10572,-0.002 -12.98117,-0.08225 -13.05656,-0.178317 -0.19561,-0.249263 -0.23516,-1.252999 -0.0635,-1.611739 0.10403,-0.217414 0.0964,-0.356304 -0.027,-0.488534 -0.18848,-0.202046 -5.317591,-0.18575 -5.434639,0.01727 -0.160476,0.278342 0.138717,0.423937 0.816726,0.397442 0.43562,-0.01702 0.79967,0.100729 0.9301,0.300838 0.11788,0.180845 0.32553,0.366602 0.46144,0.412794 0.40459,0.137498 0.33274,0.553532 -0.11004,0.637231 -0.22618,0.04275 -0.46984,0.176492 -0.54146,0.297196 -0.0716,0.120702 -0.76402,0.21946 -1.538666,0.21946 h -1.408449 z m 8.183725,5.660271 c -0.13337,-0.06028 -0.31843,-0.05632 -0.41123,0.0088 -0.0928,0.06513 0.0163,0.114448 0.24249,0.109603 0.22618,-0.0048 0.30211,-0.05813 0.16874,-0.118413 z m 16.31791,-3.129227 0.58573,-0.0346 -0.2181,-0.577363 c -0.20422,-0.54059 -0.20063,-0.59359 0.0564,-0.832148 0.15096,-0.140131 0.46557,-0.254784 0.69914,-0.254784 0.30615,0 0.45436,-0.139274 0.5311,-0.499071 0.0585,-0.27449 0.43959,-0.782694 0.84678,-1.129344 0.40719,-0.346649 0.75921,-0.742274 0.78228,-0.879165 0.0774,-0.459231 -1.27728,-1.08381 -2.58434,-1.191536 -0.88737,-0.07314 -1.63044,-0.302429 -2.40263,-0.741391 l -1.11795,-0.635509 -1.16844,0.3982 c -1.47449,0.502499 -2.46771,0.517814 -2.69559,0.04156 -0.0938,-0.196149 -0.37592,-0.356635 -0.62682,-0.356635 -0.27724,0 -0.50473,-0.150487 -0.57996,-0.383658 -0.0999,-0.309575 -0.17972,-0.331741 -0.41343,-0.114791 -0.16944,0.157285 -0.51787,0.20557 -0.83957,0.116346 -0.60943,-0.169029 -1.28374,0.257223 -1.71527,1.084276 -0.38033,0.728921 -1.69123,0.69127 -2.22277,-0.06384 -0.89257,-1.267985 -1.38374,-1.619225 -2.3373,-1.671422 -0.51084,-0.02796 -1.31261,-0.202217 -1.78173,-0.387233 -0.46911,-0.185015 -0.89041,-0.271385 -0.93622,-0.191932 -0.17752,0.307914 0.43116,1.45185 0.99597,1.871776 0.83376,0.619889 0.88896,1.0778 0.24611,2.041654 -0.59276,0.888746 -0.5821,0.959299 0.0609,0.402921 0.45425,-0.393043 1.73997,-0.33346 1.91514,0.08875 0.0434,0.104551 0.25047,0.379555 0.4602,0.61112 0.20973,0.231565 0.35002,0.508885 0.31176,0.616266 -0.0383,0.107382 -0.4566,0.320982 -0.92963,0.474669 -1.95366,0.634729 -2.31724,0.784017 -2.23917,0.919427 0.0451,0.07818 0.92584,0.278369 1.95725,0.444865 1.79377,0.28956 1.89435,0.282295 2.31358,-0.167102 0.24106,-0.258403 0.53272,-0.719809 0.64814,-1.025347 0.14792,-0.391561 0.39016,-0.598389 0.82075,-0.700756 0.33599,-0.07988 0.88021,-0.307907 1.20936,-0.506733 0.32916,-0.198825 0.93058,-0.363058 1.33649,-0.364961 0.40591,-0.0019 0.96107,-0.118689 1.23369,-0.259525 0.48624,-0.251188 0.805,-0.142621 1.38668,0.472292 0.32404,0.342562 1.68494,1.405274 1.98761,1.552108 0.15078,0.07315 0.4185,0.501569 0.59493,0.95204 0.39135,0.999269 0.68325,1.0664 3.82896,0.880573 z m 1.67603,-0.272357 c 0,-0.130766 -0.0925,-0.237757 -0.20562,-0.237757 -0.11309,0 -0.20561,0.106991 -0.20561,0.237757 0,0.130766 0.0925,0.237756 0.20561,0.237756 0.11309,0 0.20562,-0.10699 0.20562,-0.237756 z m 3.08423,-1.902052 c 0.0466,-0.130766 0.023,-0.237757 -0.0524,-0.237757 -0.0754,0 -0.1752,0.106991 -0.2218,0.237757 -0.0466,0.130766 -0.023,0.237756 0.0524,0.237756 0.0754,0 0.1752,-0.10699 0.2218,-0.237756 z m -23.13172,7.19231 c -0.29099,-0.114612 -0.30638,-0.381178 -0.0438,-0.759124 0.15658,-0.225398 0.22565,-0.186295 0.34306,0.194215 0.16234,0.526134 0.0657,0.708631 -0.29924,0.564909 z"
     style="fill:#3a4d4c;stroke-width:0.18052951" />
  <path
     inkscape:connector-curvature="0"
     id="path3722"
     d="m 95.97993,32.878169 c -0.03256,-0.05648 -0.05921,-0.335162 -0.05921,-0.619292 0,-0.741565 0.529747,-1.104649 1.166664,-0.799621 0.276896,0.132609 0.746652,0.169839 1.043903,0.08273 0.33998,-0.09963 0.61194,-0.05547 0.73318,0.119054 0.22889,0.329487 0.12638,0.95593 -0.15642,0.95593 -0.10948,0 -0.16097,0.106846 -0.11444,0.237436 0.0821,0.230526 -2.481038,0.253826 -2.613681,0.02376 z m 7.10012,0.02451 c 0.0148,-0.09175 -0.0436,-0.38657 -0.12972,-0.655149 -0.25913,-0.807867 -0.0193,-1.141707 0.68793,-0.957746 0.4027,0.104743 0.65292,0.06839 0.71426,-0.103759 0.0519,-0.145739 0.0641,-0.317535 0.0271,-0.381768 -0.037,-0.06423 -1.84748,-0.201926 -4.02322,-0.305984 -2.175743,-0.104058 -4.063845,-0.269813 -4.195782,-0.368344 -0.186039,-0.138937 -0.239884,-0.466959 -0.239884,-1.461372 0,-0.73221 0.06138,-1.282224 0.143086,-1.282224 0.0787,0 0.12496,-0.154525 0.102807,-0.343389 -0.02215,-0.188864 0.08309,-0.506432 0.233876,-0.705708 0.266484,-0.352182 0.263607,-0.36253 -0.102808,-0.36988 -0.386796,-0.0078 -0.511456,-0.349318 -0.205615,-0.56337 0.137077,-0.09594 0.137077,-0.123675 0,-0.138691 -0.223713,-0.02451 -0.223713,-1.369032 0,-1.525604 0.137077,-0.09594 0.137077,-0.123675 0,-0.138692 -0.127361,-0.01395 -0.171346,-0.781676 -0.171346,-2.990726 v -2.971956 h 2.714123 c 1.928213,0 2.761753,0.08261 2.878613,0.285308 0.12794,0.221906 0.16449,0.221906 0.16449,0 0,-0.383405 0.25002,-0.361136 0.48304,0.04302 0.27768,0.481629 0.11022,0.622265 -0.74577,0.626337 -0.96888,0.0046 -1.27678,0.286404 -0.81769,0.748353 1.53616,1.54573 2.8619,3.186531 2.86215,3.54235 1.6e-4,0.204249 -0.19081,0.6164 -0.42436,0.915891 -0.57177,0.733215 -0.35184,1.171893 0.38625,0.770392 0.59793,-0.325262 1.29627,-0.267463 1.36945,0.113345 0.0473,0.246327 -2.00262,1.038723 -2.68722,1.038723 -0.46948,0 -0.33121,0.3938 0.29381,0.836776 0.34712,0.24602 1.21968,0.490528 2.15896,0.604981 2.71653,0.331017 2.62452,0.352703 3.26511,-0.769502 0.31146,-0.545622 0.7066,-1.015759 0.87809,-1.044749 0.17148,-0.02899 0.65106,-0.235109 1.06571,-0.458044 0.41466,-0.222934 1.15488,-0.437726 1.64493,-0.477315 0.49005,-0.03959 1.12623,-0.151085 1.41373,-0.247768 0.41623,-0.139973 0.59887,-0.07816 0.89642,0.303398 0.20552,0.263553 0.56745,0.553007 0.80429,0.643231 0.23683,0.09022 0.50411,0.317653 0.59394,0.505396 0.0898,0.187744 0.31474,0.341352 0.49979,0.341352 0.30267,0 0.68303,0.536233 1.24603,1.756666 0.14055,0.304664 0.47748,0.390814 1.64493,0.420597 0.80749,0.0206 1.56069,0.02207 1.67378,0.0033 0.11309,-0.01881 1.13089,-0.0907 2.26177,-0.159746 2.42941,-0.148338 3.0583,-0.274581 3.42692,-0.687923 0.15078,-0.169076 0.54719,-0.381932 0.88091,-0.473012 0.76248,-0.208105 1.32922,-1.089713 1.12532,-1.750536 -0.22335,-0.723849 -0.95372,-0.987823 -1.73965,-0.628749 -0.3728,0.170323 -0.83202,0.310051 -1.0205,0.310508 -0.33808,8.08e-4 -0.3365,-0.0084 0.11804,-0.682717 0.44884,-0.665896 0.48235,-1.19918 0.0754,-1.19918 -0.11091,0 -0.55448,-0.256629 -0.98571,-0.570286 -0.81569,-0.593286 -2.13055,-1.191035 -3.17218,-1.442105 -0.40291,-0.09712 -0.71688,-0.353382 -0.93649,-0.76439 -0.31462,-0.588818 -0.37802,-0.611309 -1.32984,-0.471756 -0.54971,0.0806 -1.15224,0.247288 -1.33897,0.370425 -0.18673,0.123137 -0.84224,0.29995 -1.4567,0.392917 -1.27651,0.193136 -1.3421,0.07882 -0.77919,-1.358008 0.2768,-0.706525 0.44435,-0.886736 0.92527,-0.995206 0.323,-0.07285 0.82569,-0.204047 1.11708,-0.291549 0.38018,-0.114164 0.56348,-0.06691 0.64902,0.167305 0.0867,0.237293 0.11977,0.245266 0.1213,0.02921 0.002,-0.232614 1.1638,-0.297196 5.3481,-0.297196 h 5.34599 v 3.804104 c 0,2.377565 -0.0514,3.804104 -0.13708,3.804104 -0.0754,0 -0.13707,0.113305 -0.13707,0.251788 0,0.138483 0.0617,0.185664 0.13707,0.104846 0.0892,-0.09563 0.13708,1.187388 0.13708,3.674415 v 3.821357 l -12.88301,-0.01471 c -7.08566,-0.0081 -12.8709,-0.08978 -12.8561,-0.181537 z m -5.514404,-6.942885 c 0,-0.130766 -0.09617,-0.237756 -0.213705,-0.237756 -0.117538,0 -0.175582,0.10699 -0.128987,0.237756 0.0466,0.130766 0.142762,0.237757 0.213705,0.237757 0.07094,0 0.128987,-0.106991 0.128987,-0.237757 z m 4.497834,6.732524 c 0.099,-0.06868 0.21718,-0.06023 0.26273,0.01877 0.0455,0.079 -0.0354,0.135198 -0.17991,0.124874 -0.15969,-0.01141 -0.19217,-0.06775 -0.0828,-0.143645 z m 18.89288,-5.470953 c -0.15437,-0.267757 -0.094,-0.548301 0.11796,-0.548301 0.11309,0 0.20562,0.100676 0.20562,0.223725 0,0.299805 -0.21406,0.514527 -0.32358,0.324576 z m -12.90024,-6.005202 c -0.0497,-0.139431 -0.0502,-0.472754 -0.001,-0.740719 0.13828,-0.755685 0.81955,-0.544785 0.81955,0.253707 0,0.466456 -0.0784,0.610118 -0.36402,0.667457 -0.20021,0.04018 -0.40467,-0.04102 -0.45435,-0.180445 z m 1.09252,-1.675794 c -0.0466,-0.130766 -0.0194,-0.237757 0.0605,-0.237757 0.0798,0 0.14516,0.106991 0.14516,0.237757 0,0.130766 -0.0272,0.237756 -0.0604,0.237756 -0.0332,0 -0.0986,-0.10699 -0.14517,-0.237756 z m -4.79933,-0.522783 c -0.3581,-0.222147 -0.81611,-0.346662 -1.01779,-0.2767 -0.23976,0.08317 -0.42916,-0.0033 -0.54715,-0.249926 -0.15484,-0.323613 -0.14031,-0.37713 0.1024,-0.37713 0.15557,0 0.3184,-0.09978 0.36186,-0.221737 0.0967,-0.271399 0.89671,-0.258661 0.89671,0.01428 0,0.107629 0.14776,0.09825 0.32835,-0.02084 0.49146,-0.32409 3.90092,-0.273023 4.2112,0.06308 0.40719,0.44107 0.31202,0.878495 -0.19113,0.878495 -0.2471,0 -0.5757,0.153591 -0.73022,0.341313 -0.39416,0.478858 -2.55289,0.383495 -3.41423,-0.150826 z m 8.75171,-1.022634 c 0,-0.196149 0.0514,-0.356635 0.11423,-0.356635 0.0628,0 0.11423,0.160486 0.11423,0.356635 0,0.196149 -0.0514,0.356634 -0.11423,0.356634 -0.0628,0 -0.11423,-0.160485 -0.11423,-0.356634 z"
     style="fill:#384a49;stroke-width:0.18052951" />
  <path
     inkscape:connector-curvature="0"
     id="path3720"
     d="m 97.291577,32.91417 c 4.7e-5,-0.09808 -0.308376,-0.141244 -0.685384,-0.09593 -0.657562,0.07903 -0.685469,0.05744 -0.685469,-0.530422 0,-0.783224 0.493359,-1.034681 1.254254,-0.639272 0.409314,0.212704 0.660159,0.21624 1.012979,0.01428 0.25792,-0.14764 0.53183,-0.201021 0.6087,-0.118623 0.23898,0.256174 0.15367,0.795318 -0.15251,0.96387 -0.22959,0.126389 -0.25163,0.205524 -0.10281,0.369015 0.12243,0.134489 -0.0651,0.209411 -0.530192,0.211763 -0.395809,0.002 -0.719615,-0.0766 -0.719568,-0.174676 z m 5.829953,-0.586441 c -0.13013,-0.382086 -0.19429,-0.767538 -0.14259,-0.856559 0.0517,-0.08902 0.38156,-0.161857 0.73301,-0.161857 0.35145,0 0.66984,-0.10699 0.70754,-0.237756 0.0901,-0.312466 -3.22833,-0.831672 -4.31792,-0.675595 -0.695473,0.09962 -2.890926,-0.168912 -3.838154,-0.469457 -0.22485,-0.07134 -0.281553,-0.304972 -0.315297,-1.299112 l -0.04114,-1.212126 0.520913,-0.250899 c 0.286502,-0.137994 0.76765,-0.25411 1.069219,-0.258036 0.301569,-0.0039 0.825886,-0.123858 1.165146,-0.266515 2.122853,-0.892633 2.341723,-0.911019 3.221313,-0.270615 0.57702,0.42011 1.23232,0.655852 2.19587,0.789958 0.75538,0.105131 1.74534,0.264132 2.19992,0.353335 l 0.82649,0.162186 0.6497,-1.095201 c 0.35733,-0.60236 0.75527,-1.096471 0.88431,-1.098023 0.12905,-0.0015 0.57389,-0.174579 0.98855,-0.384505 0.73165,-0.370411 2.81433,-0.84564 3.61729,-0.8254 0.2178,0.0055 0.50023,0.173609 0.62764,0.373598 0.12741,0.199989 0.28848,0.366962 0.35793,0.371051 0.0695,0.0041 0.43471,0.270588 0.81167,0.592218 0.37696,0.32163 0.75738,0.58576 0.84536,0.586956 0.088,0.0012 0.36588,0.43211 0.61754,0.957589 l 0.45755,0.955415 1.43862,0.139166 c 1.6812,0.162632 1.29222,0.165274 4.03761,-0.02742 2.2479,-0.157773 2.56277,-0.234839 4.32339,-1.058169 0.56544,-0.264422 1.25939,-0.482596 1.54211,-0.484832 l 0.51404,-0.0041 v 3.209712 3.209713 h -7.03204 c -5.2866,0 -7.07287,-0.07082 -7.19653,-0.285308 -0.12794,-0.221906 -0.16449,-0.219971 -0.16449,0.0087 0,0.22938 -1.21654,0.284399 -5.53399,0.250279 l -5.53399,-0.04373 z m -6.275538,-7.257515 c -0.884157,-0.07948 -0.925268,-0.109725 -0.925268,-0.680734 0,-0.33783 0.05958,-0.533691 0.137077,-0.450618 0.07539,0.08082 0.137077,-0.01986 0.137077,-0.223725 0,-0.203866 -0.06168,-0.370666 -0.137077,-0.370666 -0.08377,0 -0.137077,-1.109531 -0.137077,-2.853078 v -2.853078 l 0.993807,0.0036 c 0.966294,0.0035 1.795936,0.334079 2.177306,0.867615 0.103,0.144097 0.55738,0.600906 1.009733,1.015131 0.82825,0.758442 1.68072,1.736694 2.53553,2.909678 0.52142,0.715488 0.47305,0.990246 -0.32344,1.837328 -0.44161,0.469662 -2.824373,1.024919 -3.983633,0.928309 -0.30732,-0.02561 -0.975137,-0.084 -1.484035,-0.129742 z m 30.878948,-2.932747 c -0.41333,-0.39268 -0.7974,-0.856163 -0.85348,-1.029962 -0.0561,-0.173799 -0.28847,-0.449999 -0.51643,-0.613778 -0.22797,-0.163779 -0.41448,-0.445286 -0.41448,-0.62557 0,-0.180285 -0.0925,-0.32779 -0.20562,-0.32779 -0.11309,0 -0.20561,-0.10699 -0.20561,-0.237757 0,-0.130766 -0.12337,-0.237756 -0.27416,-0.237756 -0.18276,0 -0.27415,-0.158504 -0.27415,-0.475513 0,-0.321552 0.0914,-0.475513 0.28224,-0.475513 0.15524,0 0.24412,-0.10699 0.19753,-0.237757 -0.0548,-0.153683 0.52404,-0.237756 1.63683,-0.237756 h 1.72155 l -0.002,2.674761 c -0.001,1.594722 -0.0499,2.543893 -0.12048,2.350662 -0.0742,-0.203087 -0.13738,-0.228552 -0.16925,-0.0682 -0.0302,0.151989 -0.35602,-0.03401 -0.80238,-0.458068 z M 98.765067,17.708279 c 0.16963,-0.05667 0.44721,-0.05667 0.61685,0 0.16963,0.05667 0.0308,0.103036 -0.30843,0.103036 -0.33926,0 -0.47805,-0.04637 -0.30842,-0.103036 z"
     style="fill:#364948;stroke-width:0.18052951" />
  <path
     inkscape:connector-curvature="0"
     id="path3718"
     d="m 97.565646,32.854731 c 0,-0.132406 -0.368889,-0.237757 -0.832512,-0.237757 -0.718802,0 -0.826303,-0.05683 -0.787052,-0.416074 0.05503,-0.503626 0.914532,-0.697163 1.340421,-0.301827 0.206041,0.19126 0.426727,0.184782 0.829144,-0.02434 0.60289,-0.313296 0.8887,-0.105786 0.51213,0.371818 -0.13182,0.167182 -0.23967,0.425911 -0.23967,0.574952 0,0.149042 -0.18505,0.270985 -0.411231,0.270985 -0.226177,0 -0.41123,-0.10699 -0.41123,-0.237756 z m 5.735344,-0.458866 c -0.2771,-0.844823 -0.19953,-1.016663 0.37461,-0.829844 0.24918,0.08108 0.57708,0.01701 0.75416,-0.147363 0.29024,-0.269419 0.2959,-0.312868 0.077,-0.590505 -0.25889,-0.328334 -2.33671,-0.595453 -5.326693,-0.684784 -1.571946,-0.04696 -1.924783,-0.124852 -2.14721,-0.473991 -0.14639,-0.229786 -0.379401,-0.397193 -0.517802,-0.372015 -0.525951,0.09568 -0.594331,-0.01021 -0.594331,-0.92038 0,-0.557852 0.06647,-0.920683 0.171346,-0.935332 0.960079,-0.134096 2.732767,-0.594003 3.718347,-0.964691 l 1.216703,-0.457612 1.11361,0.650014 c 0.80511,0.469942 1.53132,0.694316 2.62145,0.809934 0.82932,0.08796 1.72006,0.210293 1.97943,0.271859 0.41507,0.09852 0.54155,-0.01291 1.05536,-0.929827 0.32108,-0.572971 0.75655,-1.098002 0.96772,-1.166736 0.21117,-0.06873 0.72321,-0.300018 1.13787,-0.513966 0.41466,-0.213947 1.15487,-0.425334 1.64492,-0.469748 0.49005,-0.04441 1.10856,-0.154473 1.37445,-0.244575 0.37796,-0.128072 0.56215,-0.05645 0.84409,0.328199 0.19834,0.270611 0.44342,0.492421 0.54462,0.492909 0.1012,5e-4 0.38596,0.21447 0.63281,0.475513 0.24684,0.261044 0.54535,0.474625 0.66334,0.474625 0.11799,0 0.48431,0.481457 0.81403,1.069904 0.58194,1.038549 0.62577,1.071124 1.49562,1.111512 1.42745,0.06628 1.64296,0.109231 1.94232,0.387114 0.19663,0.182525 0.32616,0.186672 0.42592,0.01364 0.0998,-0.173034 0.22868,-0.169455 0.42391,0.01177 0.18512,0.171835 0.30945,0.179328 0.3655,0.02203 0.11002,-0.308766 0.71273,-0.309237 0.82269,-6.42e-4 0.13079,0.367041 0.9738,0.28103 1.16516,-0.118879 0.12191,-0.254795 0.44438,-0.356634 1.12927,-0.356634 0.52724,0 1.24448,-0.156526 1.59386,-0.347836 0.87195,-0.477448 2.05401,-1.012808 2.5843,-1.170442 l 0.44121,-0.131154 -0.008,3.202281 -0.008,3.202279 h -1.76933 c -1.08817,0 -1.76933,-0.09153 -1.76933,-0.237756 0,-0.130767 -0.13879,-0.230237 -0.30842,-0.221046 -0.29478,0.01597 -0.2963,0.02594 -0.0343,0.225338 0.17789,0.135371 -0.23123,0.202122 -1.16515,0.190101 -0.79162,-0.01019 -1.32003,-0.09314 -1.17425,-0.184325 0.353,-0.220811 0.0733,-0.501268 -0.32139,-0.322249 -0.23172,0.105101 -0.26355,0.190554 -0.1266,0.339918 0.10153,0.110735 -1.23643,0.194963 -3.00667,0.189278 -1.94172,-0.0062 -3.15862,-0.0972 -3.11041,-0.232508 0.0436,-0.122245 0.0175,-0.222264 -0.0579,-0.222264 -0.0754,0 -0.1762,0.1098 -0.22402,0.244 -0.0953,0.267409 -1.00819,0.235671 -1.10586,-0.03845 -0.0334,-0.09379 -0.26,-0.07141 -0.50351,0.04972 -0.24351,0.121132 -0.53568,0.218602 -0.64927,0.216599 -0.18335,-0.0032 -0.18345,-0.02949 -9e-4,-0.234115 0.12354,-0.138484 0.14045,-0.231929 0.0424,-0.234116 -0.0898,-0.002 -0.2023,0.105921 -0.25001,0.23983 -0.10368,0.290963 -4.3155,0.213684 -4.31574,-0.07918 -8e-5,-0.105792 -0.0745,-0.112685 -0.16529,-0.01532 -0.25637,0.274822 -0.93147,0.348432 -0.93147,0.101564 0,-0.289174 -0.58972,-0.223143 -0.70921,0.07941 -0.0596,0.150941 -0.15682,0.142604 -0.27415,-0.02351 -0.21261,-0.301012 -2.19493,-0.332643 -2.08827,-0.03332 0.0397,0.111322 -0.22452,0.201728 -0.58709,0.200901 -0.5845,-0.0013 -0.68498,-0.0801 -0.8867,-0.695119 z m 20.85756,-0.49216 c 0,-0.130767 -0.0617,-0.237757 -0.13708,-0.237757 -0.0754,0 -0.13707,0.10699 -0.13707,0.237757 0,0.130766 0.0617,0.237756 0.13707,0.237756 0.0754,0 0.13708,-0.10699 0.13708,-0.237756 z m -8.77292,-1.188783 c 0,-0.130766 -0.0617,-0.237756 -0.13707,-0.237756 -0.0754,0 -0.13708,0.10699 -0.13708,0.237756 0,0.130766 0.0617,0.237757 0.13708,0.237757 0.0754,0 0.13707,-0.106991 0.13707,-0.237757 z m 6.66588,-0.40527 c -0.11299,-0.195973 -0.49742,0.117939 -0.49742,0.406173 0,0.175835 0.0877,0.172217 0.28589,-0.0118 0.15725,-0.145961 0.25243,-0.323429 0.21153,-0.394373 z m -0.6345,-0.05621 c 0,-0.28052 -0.26734,-0.580601 -0.36554,-0.410293 -0.0982,0.170308 0.0748,0.634018 0.23656,0.634018 0.0709,0 0.12898,-0.100677 0.12898,-0.223725 z M 98.362647,23.569169 c 0.18729,-0.130284 0.27756,-0.332005 0.22038,-0.492471 -0.0966,-0.271231 -1.663924,-0.154221 -2.35388,0.175737 -0.307555,0.147081 -0.308423,0.139391 -0.308423,-2.733311 v -2.880808 h 0.91233 c 0.747212,0 0.989097,0.10147 1.336503,0.560659 0.23329,0.308363 0.73259,0.832105 1.10955,1.163872 0.37696,0.331766 0.912193,1.042383 1.189393,1.579149 0.27721,0.536765 0.5935,0.975937 0.70287,0.975937 0.10937,0 0.26918,0.146955 0.35512,0.326566 0.12207,0.255126 0.0868,0.405541 -0.1614,0.687576 -0.34556,0.392719 -1.961783,0.896968 -2.797623,0.872839 -0.46108,-0.01331 -0.485,-0.04084 -0.20482,-0.235745 z"
     style="fill:#314342;stroke-width:0.18052951" />
  <path
     inkscape:connector-curvature="0"
     id="path3716"
     d="m 97.653152,32.735852 c 0.08617,-0.389472 0.18863,-0.431627 0.517345,-0.212843 0.30258,0.201396 0.13069,0.569478 -0.265947,0.569478 -0.237283,0 -0.30808,-0.100433 -0.251398,-0.356635 z m 6.161728,0.153224 c -0.0399,-0.111876 0.0799,-0.152898 0.26607,-0.09116 0.18619,0.06174 0.33854,0.153272 0.33854,0.203411 0,0.183964 -0.53441,0.08475 -0.60461,-0.112251 z m 4.71901,0.0091 c -0.001,-0.204594 -0.0972,-0.260879 -0.27625,-0.162297 -0.16264,0.08953 -0.27415,0.04272 -0.27415,-0.115074 0,-0.162229 -0.28075,-0.266459 -0.71966,-0.267183 -1.38148,-0.0023 -2.27695,-0.09979 -2.36809,-0.257866 -0.0505,-0.08759 -0.19374,-0.09311 -0.31831,-0.01225 -0.20171,0.130935 -0.20461,0.100435 -0.0265,-0.278907 0.10999,-0.234255 0.34502,-0.521563 0.52229,-0.638461 0.17727,-0.116899 0.28349,-0.321479 0.23605,-0.454623 -0.0474,-0.133144 -0.12983,-0.195377 -0.18308,-0.138295 -0.0532,0.05708 -0.61957,0.0063 -1.25849,-0.112793 -2.06446,-0.384891 -2.79975,-0.500366 -3.14928,-0.494588 -1.862863,0.0308 -2.326493,1.39e-4 -2.741544,-0.181286 -0.263873,-0.115342 -0.371821,-0.220665 -0.239884,-0.23405 0.131936,-0.01339 0.239884,-0.145398 0.239884,-0.293361 0,-0.186452 -0.315546,-0.233899 -1.028076,-0.154586 l -1.028076,0.114437 v -0.76871 c 0,-0.881301 0.2059,-1.05338 1.266755,-1.058679 0.35745,-0.0018 1.385758,-0.277358 2.285138,-0.612382 l 1.635223,-0.609136 0.66202,0.47056 c 0.92864,0.660076 1.40065,0.840756 2.03278,0.778135 0.30157,-0.02987 0.9801,0.06459 1.50785,0.209919 2.01004,0.55352 2.25077,0.548157 2.39603,-0.05338 0.25978,-1.075805 0.77214,-1.912546 1.07053,-1.748284 0.15399,0.08477 0.31745,0.04897 0.36325,-0.07956 0.0458,-0.12853 0.36017,-0.305713 0.6986,-0.39374 0.33844,-0.08803 0.64224,-0.235554 0.67513,-0.327838 0.0329,-0.09228 0.51018,-0.185454 1.06066,-0.207046 0.55048,-0.02159 1.22586,-0.101776 1.50084,-0.178188 0.31125,-0.08649 0.53685,-0.03543 0.59768,0.135278 0.0537,0.150816 0.35307,0.477987 0.66518,0.727048 0.31211,0.249061 0.66,0.554805 0.77309,0.679432 0.11309,0.124626 0.3785,0.289917 0.58981,0.367312 0.24079,0.08819 0.48561,0.438845 0.6559,0.939434 0.29269,0.860433 0.45764,0.948293 2.3119,1.23143 0.48653,0.07429 1.00915,0.286387 1.16138,0.471324 0.15223,0.184938 0.39006,0.33625 0.52852,0.33625 0.15062,0 0.2137,0.106763 0.15704,0.265776 -0.0596,0.167156 -0.31467,0.213482 -0.68751,0.124844 -0.35635,-0.08472 -0.62849,-0.04079 -0.68226,0.110124 -0.0492,0.13808 -0.23341,0.18839 -0.40934,0.111801 -0.40594,-0.176715 -1.05458,0.319171 -0.96242,0.735763 0.038,0.171921 -0.0675,0.543111 -0.23458,0.824866 -0.26558,0.447901 -0.27097,0.492122 -0.0429,0.351873 0.14344,-0.08822 0.46967,-0.04084 0.72495,0.105287 0.31874,0.182455 0.5173,0.1892 0.63378,0.02153 0.11791,-0.169731 0.37022,-0.12962 0.82764,0.131572 0.36191,0.206655 0.59225,0.446231 0.51188,0.53239 -0.0804,0.08616 -0.68652,0.175112 -1.34698,0.197674 -0.81058,0.02769 -1.13402,-0.03314 -0.99523,-0.187181 0.1232,-0.136734 0.14017,-0.229663 0.0424,-0.231844 -0.0898,-0.002 -0.20138,0.10335 -0.24798,0.234117 -0.0466,0.130766 -0.17724,0.237756 -0.29033,0.237756 -0.11309,0 -0.16749,-0.10699 -0.1209,-0.237756 0.11016,-0.309153 -0.0179,-0.301452 -0.36642,0.02202 -0.20239,0.187872 -0.32132,0.187872 -0.42963,0 -0.1947,-0.3377 -0.68318,-0.333194 -0.87996,0.0081 -0.0963,0.16699 -0.30022,0.199154 -0.54145,0.08539 -0.59482,-0.28052 -1.5851,-0.294083 -1.93893,-0.02655 -0.21732,0.164319 -0.34773,0.162069 -0.41123,-0.0071 -0.11023,-0.293641 -0.57276,-0.327766 -0.57276,-0.04226 0,0.314146 -1.15911,0.229929 -1.36346,-0.09907 -0.15013,-0.2417 -0.16314,-0.230601 -0.0696,0.05944 0.0991,0.307367 0.0829,0.311557 -0.11697,0.03033 -0.12756,-0.17947 -0.23193,-0.238314 -0.23193,-0.130767 0,0.107548 -0.0771,0.05995 -0.17134,-0.105772 -0.1373,-0.241444 -0.12206,-0.364459 0.0767,-0.619117 0.16774,-0.214884 0.19824,-0.371237 0.0942,-0.482798 -0.21065,-0.225806 -0.71252,0.602806 -0.61958,1.022934 0.0603,0.272461 -0.0236,0.307096 -0.42641,0.176031 -0.35166,-0.114427 -0.5358,-0.06923 -0.61642,0.151313 -0.0947,0.259186 -0.11533,0.259408 -0.11706,0.0013 z m 2.91079,-0.20088 c -0.0942,-0.06596 -0.24846,-0.06596 -0.3427,0 -0.0942,0.06596 -0.0171,0.119921 0.17135,0.119921 0.18848,0 0.26559,-0.05396 0.17135,-0.119921 z m 5.40607,-1.209638 c -0.0217,-0.549914 0.0341,-0.665788 0.35115,-0.729062 0.20733,-0.04138 0.37696,-0.153717 0.37696,-0.249644 0,-0.353988 -0.33815,-0.745029 -0.64426,-0.745029 -0.1734,0 -0.31622,-0.133738 -0.31737,-0.297196 -0.001,-0.163457 -0.0581,-0.450801 -0.12663,-0.638542 -0.10496,-0.287701 -0.15958,-0.290897 -0.34753,-0.02034 -0.19297,0.277766 -0.2334,0.252047 -0.30019,-0.190931 -0.0984,-0.652632 -0.32017,-0.43131 -0.32017,0.319519 0,0.314042 -0.0954,0.708942 -0.21205,0.877555 -0.55836,0.807242 -0.86922,1.498197 -0.75958,1.688359 0.0683,0.118402 0.22918,0.106254 0.37434,-0.02826 0.14003,-0.129767 0.47049,-0.273417 0.73437,-0.319222 0.3912,-0.06791 0.50475,0.01548 0.61508,0.451671 0.19936,0.788169 0.60835,0.703742 0.57588,-0.118878 z m -1.05389,-1.3671 c 0,-0.244879 0.0898,-0.361492 0.23989,-0.311373 0.28893,0.09651 0.27072,0.518471 -0.027,0.626002 -0.12419,0.04485 -0.21286,-0.08621 -0.21286,-0.314629 z m -2.39146,1.524704 c 0.0507,-0.142158 0.20851,-0.20567 0.35078,-0.141137 0.14228,0.06453 0.25869,0.02283 0.25869,-0.09268 0,-0.282951 -0.55132,-0.879164 -0.891,-0.963562 -0.35414,-0.08799 -0.891,0.426155 -0.891,0.85329 0,0.494114 1.01313,0.79143 1.17253,0.344093 z m -5.20222,-2.022316 c -0.0353,-0.159422 0.0565,-0.479267 0.20402,-0.710765 0.18519,-0.290686 0.22416,-0.497206 0.12596,-0.667524 -0.0982,-0.170317 -0.25761,-0.04641 -0.51528,0.400511 -0.31201,0.541179 -0.34698,0.719666 -0.21357,1.090187 0.12157,0.337625 0.12109,0.519541 -0.002,0.764457 -0.0888,0.176769 -0.0206,0.117007 0.15173,-0.132805 0.17229,-0.249811 0.2844,-0.584639 0.24913,-0.744061 z m 2.31198,0.628419 c 0.0443,-0.124205 -0.0446,-0.34195 -0.19753,-0.483878 -0.18838,-0.17487 -0.27979,-0.504432 -0.28356,-1.022394 l -0.006,-0.764344 -0.37906,0.7679 c -0.35933,0.727932 -0.3914,0.746494 -0.61623,0.356635 -0.20767,-0.36009 -0.25334,-0.366888 -0.36707,-0.05463 -0.21068,0.578465 -0.0723,0.832147 0.45392,0.832147 0.27178,0 0.57137,0.133738 0.66574,0.297196 0.20279,0.351232 0.61525,0.391593 0.72936,0.07137 z m 3.49971,-0.01193 c 0,-0.130766 -0.0272,-0.237756 -0.0605,-0.237756 -0.0332,0 -0.0986,0.10699 -0.14517,0.237756 -0.0466,0.130766 -0.0194,0.237757 0.0605,0.237757 0.0798,0 0.14517,-0.106991 0.14517,-0.237757 z m -7.67631,-0.965058 c 0,-0.269249 -0.0617,-0.423421 -0.13707,-0.342603 -0.0754,0.08082 -0.13708,0.301113 -0.13708,0.489545 0,0.188432 0.0617,0.342603 0.13708,0.342603 0.0754,0 0.13707,-0.220295 0.13707,-0.489545 z m 8.537,-1.402634 c 0.0906,-0.601143 -0.0908,-1.023978 -0.39578,-0.922123 -0.30651,0.102383 -0.413,0.80443 -0.19206,1.266174 0.19651,0.41069 0.5009,0.232533 0.58784,-0.344051 z m 5.78753,5.100353 c 0.32019,-0.193584 1.16515,-0.244056 1.16515,-0.0696 0,0.104508 -0.293,0.181568 -0.65111,0.171245 -0.35811,-0.01032 -0.58943,-0.05607 -0.51404,-0.101647 z m 2.26177,-0.117339 c 0,-0.130767 0.0889,-0.237757 0.19752,-0.237757 0.10864,0 0.23565,0.10699 0.28225,0.237757 0.0466,0.130766 -0.0423,0.237756 -0.19753,0.237756 -0.15523,0 -0.28224,-0.10699 -0.28224,-0.237756 z m 0.68538,0.0068 c 0,-0.251674 0.82703,-0.711247 0.99381,-0.552253 0.0565,0.0539 0.10281,0.252177 0.10281,0.440608 0,0.2412 -0.16229,0.342604 -0.54831,0.342604 -0.30157,0 -0.54831,-0.103931 -0.54831,-0.230959 z m 1.64492,0.01864 c 0,-0.269343 0.34319,-0.50095 0.74229,-0.50095 0.18296,0 0.30864,0.145223 0.30864,0.356634 0,0.254986 -0.14977,0.356635 -0.52547,0.356635 -0.289,0 -0.52546,-0.09554 -0.52546,-0.212319 z m 1.40672,0.04787 c 0.13286,-0.06011 0.21304,-0.189328 0.17819,-0.287148 -0.0981,-0.27535 1.26027,-0.803287 1.64072,-0.637667 0.21732,0.09461 0.33837,0.315793 0.33837,0.618284 0,0.43569 -0.0899,0.468916 -1.19942,0.443403 -0.65968,-0.01517 -1.09072,-0.07676 -0.95786,-0.136872 z M 95.920724,32.260339 c 0,-0.308207 0.126724,-0.368585 0.651115,-0.310222 0.358113,0.03986 0.651115,0.179456 0.651115,0.310222 0,0.130766 -0.293002,0.270366 -0.651115,0.310223 -0.524391,0.05836 -0.651115,-0.002 -0.651115,-0.310223 z m 7.607766,-0.118878 c -0.0466,-0.130766 -0.023,-0.237756 0.0524,-0.237756 0.0754,0 0.1752,0.10699 0.22179,0.237756 0.0466,0.130766 0.023,0.237757 -0.0524,0.237757 -0.0754,0 -0.1752,-0.106991 -0.22179,-0.237757 z m 17.40303,-0.01606 c -0.0624,-0.175077 -0.29191,-0.218928 -0.64025,-0.122316 -0.46925,0.130147 -0.55286,0.08519 -0.61562,-0.331023 -0.0399,-0.264895 -0.16308,-0.481627 -0.27366,-0.481627 -0.23008,0 -0.17495,-0.517019 0.0703,-0.658783 0.0895,-0.05176 0.16277,0.07325 0.16277,0.277806 0,0.414572 0.58093,0.758774 0.83,0.491778 0.0881,-0.09445 0.20883,-0.03522 0.26828,0.131615 0.0864,0.242568 0.24281,0.226903 0.7806,-0.07819 0.60533,-0.343416 0.92893,-0.346764 1.53745,-0.01591 0.38003,0.206623 -0.30737,0.730613 -1.17733,0.897464 -0.5799,0.111218 -0.87577,0.07643 -0.94249,-0.110812 z m -2.66727,-1.053844 c 0,-0.196149 0.0925,-0.356635 0.20561,-0.356635 0.11309,0 0.20562,0.160486 0.20562,0.356635 0,0.196149 -0.0925,0.356635 -0.20562,0.356635 -0.11309,0 -0.20561,-0.160486 -0.20561,-0.356635 z m 10.21222,0.118878 c 0.0466,-0.130766 0.11192,-0.237756 0.14517,-0.237756 0.0332,0 0.0604,0.10699 0.0604,0.237756 0,0.130766 -0.0653,0.237757 -0.14516,0.237757 -0.0798,0 -0.10705,-0.106991 -0.0605,-0.237757 z m -4.86623,-0.405832 c -0.18848,-0.05682 -0.40437,-0.236119 -0.47977,-0.39843 -0.0754,-0.162311 -0.24893,-0.367967 -0.38565,-0.457014 -0.30438,-0.198254 -0.17637,-0.640776 0.18535,-0.640776 0.14481,0 0.51526,-0.174867 0.82323,-0.388594 0.43787,-0.303883 0.62523,-0.329985 0.8595,-0.119739 0.23279,0.208917 0.57268,0.168504 1.52463,-0.181274 0.67378,-0.247572 1.30604,-0.396223 1.40503,-0.330337 0.099,0.06589 0.17999,0.0014 0.17999,-0.143401 0,-0.144757 -0.0925,-0.263194 -0.20562,-0.263194 -0.33075,0 -0.23613,-0.471838 0.10281,-0.512656 1.01703,-0.122482 1.01578,-0.123065 0.9532,0.444714 -0.0329,0.2989 -0.004,0.543455 0.0642,0.543455 0.0682,0 0.13301,0.476499 0.14397,1.058887 0.0161,0.854011 -0.0311,1.086988 -0.24393,1.204129 -0.14511,0.07988 -0.33929,0.06436 -0.43151,-0.0345 -0.0922,-0.09886 -0.50914,-0.186007 -0.92649,-0.193664 -0.63581,-0.01167 -0.75574,-0.08137 -0.73978,-0.429997 0.0256,-0.559337 -0.12022,-0.524674 -0.70921,0.168602 -0.3531,0.415609 -0.60769,0.546183 -0.88047,0.45156 -0.21457,-0.07443 -0.42484,-0.01775 -0.47698,0.128595 -0.0951,0.266871 -0.16101,0.274965 -0.76246,0.09363 z m 0.61685,-1.020707 c 0.10722,-0.300904 -0.0743,-0.300904 -0.34269,0 -0.1772,0.198622 -0.17358,0.230978 0.0262,0.234116 0.12749,0.002 0.26992,-0.10335 0.31652,-0.234116 z M 96.09207,22.009281 c -0.11862,-0.09067 -0.171346,-0.783332 -0.171346,-2.250971 v -2.119995 l 0.651115,0.0036 c 0.726201,0.0041 0.836318,0.09471 1.150874,0.947385 0.131247,0.355778 0.504844,0.767456 0.930634,1.0255 0.44445,0.269352 0.68248,0.536978 0.63438,0.713269 -0.0423,0.155189 -0.11494,0.468573 -0.16132,0.696409 -0.0464,0.227837 -0.30859,0.514709 -0.58267,0.637495 -0.649324,0.290895 -2.232117,0.515089 -2.451667,0.347267 z"
     style="fill:#2e4140;stroke-width:0.18052951" />
  <path
     inkscape:connector-curvature="0"
     id="path3714"
     d="m 97.763308,32.83241 c -0.04222,-0.11849 0.08109,-0.215436 0.274019,-0.215436 0.42001,0 0.45394,0.135507 0.0768,0.306584 -0.150707,0.06836 -0.308559,0.02734 -0.350779,-0.09115 z m 13.165082,0.01601 c -0.0478,-0.134234 -0.15942,-0.228548 -0.24797,-0.209586 -0.58412,0.125072 -0.67443,-0.286133 -0.15328,-0.697982 0.40369,-0.319031 0.33638,-0.732066 -0.11324,-0.694877 -0.35859,0.02966 -1.08635,1.103704 -0.96969,1.431097 0.0441,0.123802 -0.0543,0.100247 -0.21867,-0.05234 -0.16439,-0.152591 -0.9232,-0.311655 -1.68624,-0.353475 -1.02298,-0.05607 -1.42604,-0.167768 -1.5346,-0.425293 -0.10717,-0.254199 -0.20728,-0.283571 -0.36783,-0.107919 -0.12132,0.132735 -0.33651,0.164175 -0.4782,0.06987 -0.24171,-0.160878 -0.23748,-0.197825 0.0686,-0.598209 0.40065,-0.524172 0.28081,-0.665713 -0.60212,-0.711158 -0.37696,-0.0194 -0.87043,-0.08114 -1.09661,-0.137202 -1.50384,-0.372732 -2.87695,-0.527323 -3.724203,-0.419285 -1.08847,0.138796 -1.802265,-0.132761 -1.07349,-0.408398 0.39194,-0.148237 0.37907,-0.167905 -0.27415,-0.41916 -0.37696,-0.144994 -1.101757,-0.204033 -1.610655,-0.131198 l -0.925268,0.132426 v -0.726897 c 0,-0.72533 0.002,-0.727192 0.925268,-0.864277 0.508898,-0.07556 1.603795,-0.352729 2.433115,-0.615934 0.829313,-0.263204 1.631213,-0.477397 1.782003,-0.475984 0.49145,0.0046 1.98761,1.056005 1.98761,1.396754 0,0.267653 0.0388,0.272639 0.20945,0.02694 0.15536,-0.22365 0.5498,-0.259997 1.52766,-0.140775 0.72502,0.0884 1.37434,0.220876 1.44293,0.294399 0.0686,0.07352 0.0241,0.399891 -0.0988,0.725262 -0.24677,0.653234 -0.18505,1.266437 0.12747,1.266437 0.13406,0 0.2159,-0.298819 0.24419,-0.891587 0.0389,-0.815475 0.0756,-0.887567 0.4293,-0.844498 0.53301,0.06489 1.09628,-0.338641 1.01096,-0.724272 -0.0382,-0.172666 0.0832,-0.652364 0.26988,-1.065995 0.26901,-0.596197 0.3898,-0.705214 0.58283,-0.526033 0.16312,0.15142 0.29584,0.135229 0.40209,-0.04905 0.28592,-0.495923 1.43308,-0.891017 2.98752,-1.028932 1.0337,-0.09171 1.55759,-0.05179 1.62003,0.123449 0.0508,0.142447 0.31938,0.433967 0.59695,0.647821 0.41085,0.316549 0.45476,0.409286 0.23622,0.498883 -0.46333,0.18996 -0.8787,0.785182 -0.92281,1.322394 -0.027,0.329294 -0.15654,0.544957 -0.35682,0.594222 -0.24001,0.05903 -0.29466,0.185144 -0.231,0.533028 0.0614,0.335383 -0.009,0.529054 -0.26819,0.733541 -0.19337,0.152815 -0.35158,0.474652 -0.35158,0.715194 0,0.240542 -0.0683,0.43735 -0.15174,0.43735 -0.0835,0 -0.11624,-0.160486 -0.0728,-0.356635 0.0539,-0.243748 -0.008,-0.356635 -0.19525,-0.356635 -0.27965,0 -0.31758,0.102393 -0.46233,1.248222 -0.0682,0.539611 -0.0357,0.65383 0.18608,0.65383 0.14777,0 0.30513,0.102318 0.34969,0.227373 0.0446,0.125055 0.16782,0.169597 0.27392,0.09898 0.10609,-0.07061 0.30459,-0.0157 0.44111,0.122032 0.21057,0.212447 0.18,0.251519 -0.20159,0.257653 -0.2474,0.004 -0.47944,0.140968 -0.51566,0.304425 -0.0362,0.163458 -0.21893,0.312581 -0.40602,0.331385 -0.1871,0.01881 -0.3061,-0.06144 -0.26445,-0.178317 0.0417,-0.116879 -0.0549,-0.212507 -0.21461,-0.212507 -0.15968,0 -0.25221,0.10699 -0.20562,0.237757 0.0466,0.130766 0.0539,0.237756 0.0162,0.237756 -0.0377,0 -0.10767,-0.109828 -0.1555,-0.244062 z m -3.49415,-1.969137 c 0.33414,0.218754 0.4335,0.188824 0.63123,-0.190128 0.28617,-0.548473 0.441,-0.563192 0.75413,-0.07169 0.16578,0.260226 0.34005,0.320509 0.5591,0.19341 0.17504,-0.10156 0.45881,-0.15664 0.6306,-0.122399 0.35742,0.07124 1.53818,-0.849603 1.53818,-1.199577 0,-0.13605 -0.128,-0.157813 -0.30842,-0.05244 -0.51917,0.303216 -0.9841,0.235397 -1.01518,-0.148086 -0.0159,-0.196149 -0.0694,-0.783363 -0.11892,-1.30492 l -0.09,-0.948285 -0.17227,0.710621 c -0.0947,0.390841 -0.27647,0.860628 -0.40384,1.04397 -0.20349,0.292922 -0.27852,0.255335 -0.61868,-0.309915 l -0.3871,-0.643265 -0.4304,0.628154 c -0.23672,0.345484 -0.4304,0.811304 -0.4304,1.035155 0,0.247543 -0.24445,0.612986 -0.62392,0.932757 -0.35369,0.29805 -0.58527,0.634196 -0.5347,0.776135 0.0574,0.161154 0.18451,0.100797 0.35663,-0.169374 0.22065,-0.346352 0.33676,-0.374353 0.66397,-0.160128 z m -5.64905,-2.267442 c 0.0393,-0.204619 -0.0266,-0.290299 -0.1829,-0.237756 -0.13437,0.04518 -0.27195,0.226101 -0.30573,0.402047 -0.0393,0.20462 0.0266,0.2903 0.1829,0.237757 0.13437,-0.04518 0.27195,-0.226102 0.30573,-0.402048 z m 2.36015,-0.0227 c 0,-0.123048 -0.0617,-0.289848 -0.13708,-0.370666 -0.0754,-0.08082 -0.13708,0.01986 -0.13708,0.223725 0,0.203866 0.0617,0.370666 0.13708,0.370666 0.0754,0 0.13708,-0.100676 0.13708,-0.223725 z m 0.95953,-0.01403 c 0,-0.130766 -0.0617,-0.237757 -0.13707,-0.237757 -0.0754,0 -0.13708,0.106991 -0.13708,0.237757 0,0.130766 0.0617,0.237756 0.13708,0.237756 0.0754,0 0.13707,-0.10699 0.13707,-0.237756 z m 5.75723,-0.356635 c 0,-0.196149 -0.0925,-0.356635 -0.20562,-0.356635 -0.21405,0 -0.27195,0.281195 -0.11423,0.554765 0.15773,0.273571 0.31985,0.173144 0.31985,-0.19813 z m -1.53206,-0.753007 c -0.0667,-0.596476 -0.38702,-0.678377 -0.38702,-0.09895 0,0.292045 0.0885,0.495326 0.21567,0.495326 0.12765,0 0.19758,-0.161762 0.17135,-0.396372 z m 5.49243,5.389062 c -0.12125,-0.122922 -0.41425,-0.180954 -0.65111,-0.128962 -0.23686,0.05199 -0.43065,-0.0047 -0.43065,-0.125911 0,-0.121244 -0.13879,-0.223697 -0.30842,-0.227673 -0.59979,-0.01406 0.17168,-0.541769 0.85279,-0.583336 0.34466,-0.02103 0.73652,-0.144884 0.87079,-0.275222 0.13428,-0.130338 0.42596,-0.190694 0.64819,-0.134123 0.59012,0.150226 0.53919,0.895579 -0.0925,1.353355 -0.57424,0.41615 -0.59589,0.419119 -0.88912,0.121872 z m 1.61694,0.0844 c -0.17876,-0.310058 -0.0934,-0.559718 0.19134,-0.559718 0.15952,0 0.26162,0.124624 0.23131,0.282335 -0.0668,0.347444 -0.29565,0.497658 -0.42265,0.277383 z m 0.8653,-0.175354 c 0,-0.424617 0.45146,-0.625923 0.91818,-0.409421 0.52301,0.242607 0.56025,0.711832 0.0545,0.686892 -0.22822,-0.01126 -0.3826,-0.111278 -0.34305,-0.222272 0.0396,-0.110994 -0.0242,-0.201807 -0.14179,-0.201807 -0.11754,0 -0.21371,0.10699 -0.21371,0.237757 0,0.130766 -0.0617,0.237756 -0.13707,0.237756 -0.0754,0 -0.13708,-0.148007 -0.13708,-0.328905 z m 1.72126,-0.07955 c -0.0965,-0.433979 0.14359,-0.585728 0.32543,-0.205713 0.0982,0.205185 0.32621,0.292566 0.5981,0.22919 0.33252,-0.07751 0.38577,-0.04482 0.21888,0.134336 -0.29251,0.313992 -1.06114,0.207814 -1.14241,-0.157813 z m 1.67139,0.250998 c 0.0942,-0.06596 0.24845,-0.06596 0.34269,0 0.0942,0.06596 0.0171,0.119921 -0.17134,0.119921 -0.18848,0 -0.26559,-0.05396 -0.17135,-0.119921 z m 2.2275,-0.08029 c 0,-0.130767 0.058,-0.237757 0.12898,-0.237757 0.071,0 0.16712,0.10699 0.21371,0.237757 0.0466,0.130766 -0.0114,0.237756 -0.12899,0.237756 -0.11753,0 -0.2137,-0.10699 -0.2137,-0.237756 z m 0.68538,-0.02699 c 0,-0.157862 0.1631,-0.223223 0.40399,-0.161898 0.2222,0.05656 0.37277,0.01521 0.33461,-0.09189 -0.0382,-0.107104 -0.004,-0.194735 0.0758,-0.194735 0.0798,0 0.14517,0.160485 0.14517,0.356634 0,0.249078 -0.14469,0.356635 -0.47977,0.356635 -0.26387,0 -0.47977,-0.119134 -0.47977,-0.264742 z m 1.782,-0.01264 c 0,-0.15256 0.0406,-0.206984 0.0902,-0.120941 0.0496,0.08604 0.16479,0.04906 0.25596,-0.08218 0.11465,-0.165032 0.21883,-0.127733 0.33782,0.120941 0.14731,0.307862 0.1105,0.359567 -0.25597,0.359567 -0.2354,0 -0.42801,-0.124822 -0.42801,-0.277383 z m 1.64492,-0.07925 c 0,-0.358947 0.11404,-0.403152 1.19942,-0.46492 0.4764,-0.02711 0.58258,0.04473 0.58258,0.3942 0,0.367471 -0.12485,0.427355 -0.891,0.427355 -0.70061,0 -0.891,-0.0762 -0.891,-0.356635 z m -31.051293,-0.3229 c -0.146195,-0.253572 0.130797,-0.50925 0.551703,-0.50925 0.668905,0 0.716839,0.409027 0.06065,0.517566 -0.305066,0.05046 -0.580626,0.04672 -0.612356,-0.0083 z m 25.156993,-0.492142 c 0,-0.140176 0.11973,-0.254865 0.26606,-0.254865 0.14634,0 0.30419,-0.10699 0.35079,-0.237756 0.11295,-0.316998 0.85089,-0.304904 0.96517,0.01582 0.1264,0.35473 0.0913,0.379787 -0.79383,0.565915 -0.52878,0.1112 -0.78819,0.08187 -0.78819,-0.08911 z m -4.15427,-0.406905 c -0.15811,-0.274231 0.0513,-0.561229 0.40953,-0.561229 0.2968,0 0.32488,0.0554 0.18074,0.356634 -0.17839,0.372834 -0.44083,0.463796 -0.59027,0.204595 z m -2.89178,-0.498359 c -0.16501,-0.286202 -0.075,-0.538383 0.19221,-0.538383 0.15078,0 0.27415,0.09554 0.27415,0.212319 0,0.267248 -0.35655,0.516534 -0.46636,0.326064 z m 10.63746,-0.823691 c -0.0905,-0.156919 -0.16449,-0.412488 -0.16449,-0.567931 0,-0.338842 0.82747,-0.646277 1.15419,-0.428821 0.20779,0.138304 0.20022,0.211699 -0.074,0.718055 -0.33547,0.61936 -0.66197,0.718735 -0.91567,0.278697 z m 3.32441,0.103349 c -0.23941,-0.291132 -0.2324,-1.712823 0.009,-1.873649 0.26771,-0.178177 0.82749,0.638163 0.60278,0.87904 -0.11266,0.120771 -0.11354,0.210487 -0.003,0.328732 0.0834,0.08945 0.15171,0.316801 0.15171,0.505233 0,0.359958 -0.50829,0.467329 -0.76049,0.160644 z m -15.00335,-0.293554 c 0,-0.130766 0.0617,-0.237757 0.13707,-0.237757 0.0754,0 0.13708,0.106991 0.13708,0.237757 0,0.130766 -0.0617,0.237756 -0.13708,0.237756 -0.0754,0 -0.13707,-0.10699 -0.13707,-0.237756 z m 4.32628,-0.221723 c -0.13185,-0.252713 -0.32089,-0.405461 -0.42009,-0.33944 -0.15929,0.106022 -0.44417,-0.767761 -0.32033,-0.982546 0.0258,-0.04473 0.35526,0.02896 0.73217,0.163756 0.3769,0.1348 0.81461,0.259706 0.97269,0.277569 0.15808,0.01786 0.39397,0.185902 0.5242,0.373419 0.21522,0.309888 0.17656,0.368482 -0.42449,0.643338 -0.85022,0.388795 -0.78599,0.397008 -1.06415,-0.136096 z m 9.68121,-0.0047 c 0.0236,-0.25531 -0.0805,-0.626374 -0.23127,-0.824585 -0.26307,-0.345813 -0.25614,-0.36069 0.17134,-0.367946 0.3493,-0.0059 0.4455,0.09092 0.4455,0.448506 0,0.250837 0.0374,0.625304 0.0832,0.832148 0.0601,0.271728 6.7e-4,0.37608 -0.21423,0.37608 -0.21828,0 -0.28603,-0.123538 -0.25455,-0.464202 z m -13.22601,-0.172513 c -0.34541,-0.248375 -0.50648,-0.504423 -0.47837,-0.760457 0.0639,-0.581775 0.63917,-0.615886 0.98143,-0.05819 l 0.29817,0.48586 0.15079,-0.644592 c 0.0829,-0.354525 0.22778,-0.99231 0.32189,-1.4173 0.0941,-0.42499 0.18525,-0.772709 0.20255,-0.772709 0.30165,0 0.8937,0.638763 1.01301,1.092926 0.20613,0.784693 0.20228,0.809127 -0.12742,0.809127 -0.22101,0 -0.26424,-0.10467 -0.19638,-0.475513 0.0479,-0.261532 0.0287,-0.475513 -0.0425,-0.475513 -0.21025,0 -0.4294,0.585796 -0.52308,1.398204 -0.14165,1.228383 -0.66057,1.493725 -1.60007,0.818159 z M 96.09207,20.611262 c -0.203876,-0.40164 -0.23043,-1.784165 -0.03427,-1.784165 0.07539,0 0.137077,-0.160485 0.137077,-0.356634 0,-0.196149 -0.06168,-0.356635 -0.137077,-0.356635 -0.07539,0 -0.137077,-0.112853 -0.137077,-0.250783 0,-0.1508 0.2591,-0.221893 0.649882,-0.178318 0.477383,0.05323 0.661432,0.178033 0.693397,0.470183 0.02826,0.258302 -0.06741,0.434473 -0.272921,0.502574 -0.308022,0.102069 -0.307324,0.105815 0.02626,0.140876 0.615445,0.06469 0.747276,0.351772 0.538037,1.171666 -0.125139,0.490351 -0.310928,0.763555 -0.583562,0.858131 -0.564247,0.195735 -0.685459,0.165851 -0.879743,-0.216895 z"
     style="fill:#2d403e;stroke-width:0.18052951" />
  <path
     inkscape:connector-curvature="0"
     id="path3712"
     d="m 114.9744,32.840699 c 0,-0.138484 -0.0771,-0.173588 -0.17134,-0.07801 -0.17015,0.172563 0.27482,-0.847606 0.48863,-1.120273 0.19023,-0.242602 0.77933,0.0611 0.77933,0.401777 0,0.177547 -0.18199,0.486045 -0.40443,0.685553 -0.47451,0.425605 -0.69219,0.460497 -0.69219,0.110952 z m 2.39885,0.01403 c 0.0466,-0.130767 0.11192,-0.237757 0.14516,-0.237757 0.0332,0 0.0604,0.10699 0.0604,0.237757 0,0.130766 -0.0653,0.237756 -0.14516,0.237756 -0.0799,0 -0.10705,-0.10699 -0.0605,-0.237756 z m 0.891,0 c 0,-0.130767 0.0962,-0.237757 0.2137,-0.237757 0.11754,0 0.17558,0.10699 0.12899,0.237757 -0.0466,0.130766 -0.14276,0.237756 -0.21371,0.237756 -0.0709,0 -0.12898,-0.10699 -0.12898,-0.237756 z m 1.48214,0.07534 c 0.099,-0.06868 0.21718,-0.06023 0.26273,0.01877 0.0456,0.079 -0.0354,0.135198 -0.17991,0.124875 -0.15969,-0.01141 -0.19217,-0.06775 -0.0828,-0.143645 z m 4.04213,0.0117 c 0.14229,-0.246799 0.78126,-0.300862 0.78126,-0.0661 0,0.119252 -0.19533,0.216821 -0.43408,0.216821 -0.23874,0 -0.39497,-0.06782 -0.34718,-0.150718 z m 1.7408,-0.08704 c 0.26576,-0.297891 0.41123,-0.297891 0.41123,0 0,0.130766 -0.13879,0.236118 -0.30842,0.234115 -0.24941,-0.0029 -0.26908,-0.04774 -0.10281,-0.234115 z m 1.50784,0.02698 c 0,-0.295243 0.86285,-0.497381 1.02122,-0.239241 0.19017,0.309955 0.58992,0.259276 0.67,-0.08494 0.0413,-0.177543 0.0735,-0.129682 0.08,0.118878 0.009,0.355512 -0.11887,0.416074 -0.88018,0.416074 -0.49005,0 -0.891,-0.09485 -0.891,-0.210771 z m -15.42852,-0.285458 c -0.0507,-0.14216 -0.0384,-0.351686 0.0273,-0.465613 0.16212,-0.28119 0.51893,0.128131 0.40076,0.459747 -0.11974,0.336051 -0.3095,0.338651 -0.42808,0.0059 z m 2.46661,-0.169847 c 0.0187,-0.222106 0.13618,-0.438421 0.26099,-0.480701 0.3074,-0.104128 0.28714,0.253912 -0.0341,0.601827 -0.21979,0.238078 -0.25561,0.218958 -0.22693,-0.121126 z m -3.32453,-0.06205 c 0.033,-0.171631 0.14094,-0.358864 0.23989,-0.416074 0.10281,-0.05944 0.15421,0.02972 0.11994,0.208037 -0.033,0.17163 -0.14093,0.358864 -0.23988,0.416074 -0.10281,0.05944 -0.15422,-0.02972 -0.11995,-0.208037 z m -2.49589,-0.39572 c -0.32443,-0.394142 -0.34725,-0.848472 -0.0632,-1.257417 0.16972,-0.244313 0.25403,-0.227728 0.4563,0.08977 0.13645,0.214197 0.45328,0.389448 0.70405,0.389448 0.43888,0 0.44715,0.01688 0.22083,0.450631 -0.30372,0.582114 -0.97182,0.748158 -1.31802,0.327572 z m -1.64211,-0.07082 c 0,-0.417763 0.71395,-0.774139 0.84033,-0.41946 0.0692,0.194109 0.0231,0.365584 -0.1257,0.468016 -0.3591,0.247177 -0.71463,0.22302 -0.71463,-0.04856 z m 15.46398,-0.394287 c 0.099,-0.06868 0.21718,-0.06023 0.26273,0.01877 0.0456,0.079 -0.0354,0.135198 -0.17992,0.124875 -0.15968,-0.01141 -0.19216,-0.06775 -0.0828,-0.143645 z m -18.30833,-1.21525 c -0.84454,-0.07055 -0.85673,-0.08138 -0.85673,-0.761239 0,-0.614289 0.49799,-1.902956 0.73538,-1.902956 0.0479,0 0.0871,0.314657 0.0871,0.699237 0,0.384581 0.0686,0.772755 0.1524,0.862608 0.21513,0.230612 0.41238,-0.390506 0.32612,-1.026893 -0.061,-0.449788 -0.0158,-0.534952 0.28368,-0.534952 0.32446,0 0.34815,0.06355 0.26587,0.713269 -0.089,0.703018 -0.0821,0.71327 0.47798,0.71327 0.53637,0 0.56587,0.03597 0.52493,0.640077 -0.048,0.707992 -0.18477,0.748934 -1.99672,0.597579 z m 24.77664,-0.300662 c 0,-0.26925 0.0617,-0.423421 0.13707,-0.342603 0.0754,0.08082 0.13708,0.301113 0.13708,0.489545 0,0.188431 -0.0617,0.342603 -0.13708,0.342603 -0.0754,0 -0.13707,-0.220296 -0.13707,-0.489545 z M 99.910467,29.437594 c -0.26127,-0.546027 -2.322687,-0.830918 -3.544243,-0.489819 -0.420789,0.117499 -0.4455,0.08424 -0.4455,-0.599644 0,-0.722458 0.0017,-0.724052 0.788192,-0.728194 0.822386,-0.0043 2.662131,-0.469307 3.755414,-0.94914 0.56326,-0.24721 0.7119,-0.222001 1.28538,0.217999 0.35666,0.273644 0.73316,0.497535 0.83667,0.497535 0.26087,0 0.23509,0.328196 -0.0625,0.795299 -0.31448,0.49363 -0.43069,0.493889 -0.63831,0.0014 -0.14829,-0.351759 -0.24272,-0.290655 -0.91856,0.594391 -0.84839,1.110992 -0.84257,1.107358 -1.056553,0.660152 z m 1.561873,0.08855 c 0.0466,-0.130766 0.14276,-0.237757 0.2137,-0.237757 0.071,0 0.12899,0.106991 0.12899,0.237757 0,0.130766 -0.0962,0.237756 -0.21371,0.237756 -0.11753,0 -0.17558,-0.10699 -0.12898,-0.237756 z m 5.23176,0.07925 c -0.13357,-0.231678 -0.1116,-0.980541 0.0333,-1.135896 0.23885,-0.256035 0.56068,0.160374 0.56068,0.725446 0,0.393209 -0.0776,0.568954 -0.25131,0.568954 -0.13821,0 -0.29243,-0.07133 -0.34269,-0.158504 z m 10.73494,-0.203876 c -0.0954,-0.199309 -0.13905,-0.421959 -0.0971,-0.494776 0.10491,-0.18195 0.64812,0.344209 0.64812,0.627765 0,0.356526 -0.35819,0.270081 -0.55105,-0.132989 z m -5.70967,-0.253506 c -0.0408,-0.184327 -0.19008,-0.33514 -0.33179,-0.33514 -0.33529,0 -0.67256,-1.385695 -0.67256,-2.763235 0,-1.034805 0.003,-1.040869 0.48901,-1.040869 0.44345,0 0.48029,0.04983 0.39544,0.534952 -0.0515,0.294224 -0.0938,0.588448 -0.094,0.653831 -0.004,1.098349 0.28545,0.902958 0.39315,-0.265305 l 0.0902,-0.978574 0.57498,0.136695 c 0.35731,0.08494 0.63571,0.03136 0.73539,-0.141524 0.12249,-0.212452 0.22405,-0.16783 0.42965,0.188773 0.2676,0.46415 0.26738,0.47379 -0.0358,1.58475 -0.34,1.245898 -0.45026,1.368536 -0.58219,0.647558 -0.0849,-0.464131 -0.10005,-0.468108 -0.26771,-0.0704 -0.13117,0.311131 -0.14008,0.564746 -0.034,0.96844 0.17479,0.665384 0.12172,0.770291 -0.5159,1.01972 -0.38142,0.149207 -0.51724,0.116151 -0.57384,-0.139668 z m -1.41558,-0.245374 c 0,-0.315928 0.0372,-0.332175 0.20562,-0.08977 0.11309,0.162789 0.20561,0.336375 0.20561,0.385747 0,0.04937 -0.0925,0.08977 -0.20561,0.08977 -0.11309,0 -0.20562,-0.173586 -0.20562,-0.385747 z m 4.66271,0.20743 c 0.001,-0.09807 0.0619,-0.338803 0.13498,-0.534952 0.10745,-0.288389 0.13328,-0.254266 0.13498,0.178317 0.001,0.294224 -0.0596,0.534952 -0.13498,0.534952 -0.0754,0 -0.13613,-0.08024 -0.13498,-0.178317 z m -9.42613,-0.620524 c -0.34784,-0.298806 -0.42641,-0.757108 -0.0916,-0.534257 0.11925,0.07937 0.3043,0.144316 0.41123,0.144316 0.10692,0 0.1944,0.160485 0.1944,0.356634 0,0.403836 -0.0769,0.408819 -0.51404,0.03331 z m 3.93865,-0.865454 c -0.0159,-0.326915 -0.0485,-0.876706 -0.0725,-1.221758 -0.0372,-0.536005 0.019,-0.649048 0.38565,-0.776247 0.2855,-0.09904 0.4943,-0.03594 0.62368,0.188478 0.24432,0.423759 0.0829,0.922395 -0.24097,0.744135 -0.18389,-0.101235 -0.29438,0.08408 -0.45491,0.763037 -0.19087,0.807278 -0.21492,0.837444 -0.24098,0.302355 z m -1.36846,-0.210033 c 0,-0.490176 0.32551,-1.464199 0.46279,-1.384826 0.0778,0.04496 0.14425,0.395451 0.14773,0.778865 0.005,0.546029 -0.0605,0.713581 -0.30209,0.773091 -0.16964,0.04179 -0.30843,-0.03342 -0.30843,-0.16713 z"
     style="fill:#293c3b;stroke-width:0.18052951" />
</svg>
